# xmcd CD database file
#
# Track frame offsets:
#	150
#	74592
#	98345
#	108907
#	115552
#	129525
#	134635
#	145360
#	148740
#	159250
#	170337
#	176915
#	189437
#	197960
#	217617
#	252737
#
# Disc length: 3589 seconds
#
# Revision: 0
# Processed by: cddbd v1.5.1PL2 Copyright (c) Steve Scherf et al.
# Submitted via: CDex 1.51
#
DISCID=ee0e0310
DTITLE=池宮正信 - ラプソディ・イン・ブルー〜プレイズ・ガーシュウィン〜
DYEAR=1900
DGENRE=Jazz
TTITLE0=Rhapsody in Blue
TTITLE1=An American in Paris(In Miniature)
TTITLE2=Rialto Ripples
TTITLE3=Prelude ? in B-Flat Major
TTITLE4=Prelude ? in C-Sharp Minor
TTITLE5=Prelude ? in E-Flat Major
TTITLE6=Prelude(Sleepless Night)Melody No.17
TTITLE7=Prelude(Rubato)
TTITLE8=Prelude(Novelette in Fourth)
TTITLE9=The Man I Love
TTITLE10=I Got Rhythm
TTITLE11=Promenade(Walking the Dog)
TTITLE12=Impromptu in Two Keys
TTITLE13=Two Wartzens in C
TTITLE14=Lullaby
TTITLE15=Burning of Rome
EXTD=
EXTT0=
EXTT1=
EXTT2=
EXTT3=
EXTT4=
EXTT5=
EXTT6=
EXTT7=
EXTT8=
EXTT9=
EXTT10=
EXTT11=
EXTT12=
EXTT13=
EXTT14=
EXTT15=
PLAYORDER=
